<?xml version="1.0" encoding="UTF-8"?>
<svg xmlns="http://www.w3.org/2000/svg" xmlns:xlink="http://www.w3.org/1999/xlink" width="28pt" height="28pt" viewBox="0 0 28 28" version="1.1">
<g id="surface1">
<path style="fill-rule:nonzero;fill:rgb(100%,100%,100%);fill-opacity:1;stroke-width:4.8;stroke-linecap:butt;stroke-linejoin:miter;stroke:rgb(100%,100%,100%);stroke-opacity:1;stroke-miterlimit:4;" d="M 123.835333 73.152483 C 123.835333 114.360663 90.440595 147.755401 49.232415 147.755401 C 8.046307 147.755401 -25.370503 114.360663 -25.370503 73.152483 C -25.370503 31.944303 8.046307 -1.450436 49.232415 -1.450436 C 90.440595 -1.450436 123.835333 31.944303 123.835333 73.152483 Z M 123.835333 73.152483 " transform="matrix(0.176979,0,0,0.176979,5.294725,1.108259)"/>
<path style=" stroke:none;fill-rule:nonzero;fill:rgb(100%,100%,100%);fill-opacity:1;" d="M 13.917969 26.5 C 20.835938 26.5 26.445312 20.886719 26.445312 13.96875 C 26.445312 7.046875 20.835938 1.4375 13.917969 1.4375 C 6.996094 1.4375 1.386719 7.046875 1.386719 13.96875 C 1.386719 20.886719 6.996094 26.5 13.917969 26.5 Z M 13.917969 26.5 "/>
<path style="fill:none;stroke-width:0.2;stroke-linecap:round;stroke-linejoin:miter;stroke:rgb(52.156863%,52.156863%,52.156863%);stroke-opacity:1;stroke-miterlimit:4;" d="M -182.191479 20.0426 L -148.526972 20.0426 M -182.191479 20.0426 L -158.391261 -3.757618 M -182.191479 20.0426 L -182.191479 -13.621906 M -182.191479 20.0426 L -205.991698 -3.757618 M -182.191479 20.0426 L -215.855986 20.0426 " transform="matrix(0.372239,0,0,0.372239,81.736785,6.508108)"/>
<path style="fill:none;stroke-width:0.2;stroke-linecap:round;stroke-linejoin:miter;stroke:rgb(52.156863%,52.156863%,52.156863%);stroke-opacity:1;stroke-miterlimit:4;" d="M -182.191479 20.0426 L -205.991698 43.842819 M -182.191479 20.0426 L -182.191479 53.707107 M -182.191479 20.0426 L -158.391261 43.842819 " transform="matrix(0.372239,0,0,0.372239,81.736785,6.508108)"/>
<path style="fill:none;stroke-width:0.2;stroke-linecap:square;stroke-linejoin:miter;stroke:rgb(50.588235%,50.588235%,50.588235%);stroke-opacity:1;stroke-miterlimit:4;" d="M -178.455642 20.0426 L -178.550088 19.140123 L -178.885893 18.290115 L -179.400095 17.545047 L -180.103188 16.946893 L -180.900727 16.53763 L -181.803204 16.338245 L -182.705681 16.359233 L -183.587171 16.600594 L -184.384709 17.041338 L -185.05632 17.66048 L -185.549535 18.426536 L -185.853858 19.287038 L -185.927316 20.179021 L -185.790895 21.081499 L -185.434101 21.921013 L -184.877924 22.655587 L -184.185325 23.222259 L -183.356305 23.621028 L -182.453827 23.788931 L -181.55135 23.746955 L -180.680354 23.474113 L -179.903804 23.001887 L -179.263674 22.361758 L -178.791448 21.585207 L -178.518606 20.714212 L -178.466136 20.063588 " transform="matrix(0.372239,0,0,0.372239,81.736785,6.508108)"/>
<path style="fill:none;stroke-width:0.2;stroke-linecap:square;stroke-linejoin:miter;stroke:rgb(50.588235%,50.588235%,50.588235%);stroke-opacity:1;stroke-miterlimit:4;" d="M -170.973475 20.0426 L -171.06792 18.479006 L -171.403726 16.957387 L -171.938916 15.477744 L -172.67349 14.10304 L -173.596956 12.833275 L -174.688324 11.699931 L -175.926607 10.744984 L -177.280323 9.95794 L -178.728484 9.359786 L -180.250103 8.982005 L -181.813698 8.824596 L -183.377292 8.877066 L -184.909405 9.139414 L -186.410036 9.622134 L -187.816222 10.325227 L -189.106975 11.206717 L -190.2718 12.256109 L -191.268723 13.452416 L -192.097743 14.785145 L -192.737872 16.212318 L -193.168123 17.712949 L -193.388495 19.26605 L -193.388495 20.829645 L -193.168123 22.382745 L -192.737872 23.883376 L -192.097743 25.31055 L -191.268723 26.643278 L -190.2718 27.839586 L -189.106975 28.888978 L -187.816222 29.770468 L -186.410036 30.47356 L -184.909405 30.956281 L -183.377292 31.218629 L -181.813698 31.271099 L -180.250103 31.11369 L -178.728484 30.735908 L -177.280323 30.137755 L -175.926607 29.350711 L -174.688324 28.395764 L -173.596956 27.26242 L -172.67349 25.992655 L -171.938916 24.607457 L -171.403726 23.138308 L -171.06792 21.616689 L -170.973475 20.053094 " transform="matrix(0.372239,0,0,0.372239,81.736785,6.508108)"/>
<path style="fill:none;stroke-width:0.2;stroke-linecap:square;stroke-linejoin:miter;stroke:rgb(50.588235%,50.588235%,50.588235%);stroke-opacity:1;stroke-miterlimit:4;" d="M -163.491307 20.0426 L -163.596247 18.090731 L -163.890077 16.159849 L -164.393785 14.260449 L -165.096878 12.434506 L -165.988861 10.692515 L -167.059241 9.055463 L -168.28703 7.533844 L -169.672228 6.148646 L -171.193847 4.910363 L -172.830899 3.839983 L -174.572891 2.937505 L -176.398833 2.244906 L -178.298233 1.741198 L -180.229115 1.447368 L -182.180985 1.342429 L -184.132855 1.447368 L -186.063737 1.741198 L -187.963137 2.244906 L -189.78908 2.937505 L -191.531071 3.839983 L -193.189111 4.910363 L -194.689742 6.138152 L -196.095928 7.544338 L -197.323717 9.065956 L -198.394097 10.703009 L -199.296574 12.445 L -199.989173 14.270942 L -200.492882 16.170343 L -200.797205 18.101225 L -200.891651 20.053094 L -200.797205 22.004964 L -200.492882 23.935846 L -199.989173 25.835246 L -199.296574 27.661189 L -198.394097 29.40318 L -197.323717 31.040232 L -196.095928 32.561851 L -194.71073 33.947049 L -193.189111 35.174838 L -191.552059 36.245218 L -189.810068 37.147696 L -187.984125 37.840295 L -186.084725 38.344003 L -184.153843 38.637833 L -182.201973 38.742772 L -180.250103 38.637833 L -178.319221 38.344003 L -176.419821 37.840295 L -174.593878 37.147696 L -172.851887 36.245218 L -171.193847 35.174838 L -169.672228 33.947049 L -168.28703 32.561851 L -167.059241 31.040232 L -165.988861 29.40318 L -165.096878 27.661189 L -164.393785 25.835246 L -163.890077 23.935846 L -163.596247 22.004964 L -163.491307 20.053094 " transform="matrix(0.372239,0,0,0.372239,81.736785,6.508108)"/>
<path style="fill:none;stroke-width:0.2;stroke-linecap:square;stroke-linejoin:miter;stroke:rgb(50.588235%,50.588235%,50.588235%);stroke-opacity:1;stroke-miterlimit:4;" d="M -156.00914 20.0426 L -156.156055 17.303686 L -156.586306 14.606748 L -157.278905 11.951785 L -158.265334 9.391268 L -159.503616 6.956678 L -161.004248 4.648015 L -162.725251 2.517748 L -164.666627 0.586866 L -166.796893 -1.134137 L -169.095063 -2.634768 L -171.529653 -3.873051 L -174.09017 -4.85948 L -176.745133 -5.552079 L -179.442071 -5.98233 L -182.180985 -6.129245 L -184.919899 -5.98233 L -187.627331 -5.552079 L -190.2718 -4.85948 L -192.832318 -3.873051 L -195.277402 -2.634768 L -197.575571 -1.134137 L -199.705837 0.586866 L -201.647213 2.517748 L -203.357723 4.648015 L -204.858354 6.956678 L -206.107131 9.391268 L -207.083066 11.951785 L -207.786159 14.606748 L -208.216409 17.303686 L -208.35283 20.0426 L -208.216409 22.781514 L -207.786159 25.478453 L -207.083066 28.133415 L -206.107131 30.693933 L -204.858354 33.128523 L -203.357723 35.437186 L -201.647213 37.567453 L -199.705837 39.498335 L -197.575571 41.219338 L -195.277402 42.719969 L -192.832318 43.958252 L -190.2718 44.944681 L -187.627331 45.647774 L -184.919899 46.067531 L -182.180985 46.214446 L -179.442071 46.067531 L -176.745133 45.647774 L -174.09017 44.944681 L -171.529653 43.958252 L -169.095063 42.719969 L -166.796893 41.219338 L -164.666627 39.498335 L -162.725251 37.567453 L -161.014741 35.44768 L -159.51411 33.139017 L -158.275827 30.704427 L -157.289399 28.143909 L -156.5968 25.488947 L -156.166549 22.792008 L -156.019634 20.053094 " transform="matrix(0.372239,0,0,0.372239,81.736785,6.508108)"/>
<path style="fill-rule:nonzero;fill:rgb(0%,29.803922%,100%);fill-opacity:1;stroke-width:0.46;stroke-linecap:butt;stroke-linejoin:miter;stroke:rgb(0%,0%,0%);stroke-opacity:1;stroke-miterlimit:4;" d="M 54.00071 39.599915 L 61.126084 37.333228 L 61.136578 37.354216 L 61.16806 37.448661 L 61.178554 37.501131 L 61.210035 37.595576 L 61.220529 37.648046 L 61.252011 37.752985 L 61.293987 37.910394 L 61.314975 38.046815 L 61.346456 38.214718 L 61.367444 38.330151 L 61.377938 38.38262 L 61.388432 38.477066 L 61.388432 38.529535 L 61.40942 38.644968 L 61.40942 38.697438 L 61.419914 38.802377 L 61.430408 38.854847 L 61.440902 38.949292 L 61.451396 39.02275 L 61.451396 39.085713 L 61.46189 39.190652 L 61.46189 39.652385 L 54.063673 39.652385 Z M 54.00071 39.599915 " transform="matrix(0.372239,0,0,0.372239,-6.183214,-0.771892)"/>
<path style="fill-rule:nonzero;fill:rgb(80.784314%,100%,16.078431%);fill-opacity:1;stroke-width:0.46;stroke-linecap:butt;stroke-linejoin:miter;stroke:rgb(0%,0%,0%);stroke-opacity:1;stroke-miterlimit:4;" d="M 54.00071 39.599915 L 62.018067 18.64355 L 62.416837 18.790465 L 62.815606 18.947874 L 62.878569 18.979356 L 63.203881 19.115777 L 63.25635 19.147259 L 63.644626 19.325655 L 64.074876 19.546028 L 64.3792 19.71393 L 64.505127 19.776894 L 64.746488 19.913315 L 64.872415 19.976278 L 65.166245 20.154675 L 65.229208 20.186157 L 65.586001 20.406529 L 65.953289 20.626902 L 66.005758 20.668877 L 66.310082 20.868262 L 66.373046 20.910238 L 67.065645 21.392958 L 67.128608 21.434934 L 67.411944 21.634318 L 67.506389 21.707776 L 67.726762 21.875679 L 67.926146 22.075063 L 54.084661 39.453 Z M 54.00071 39.599915 " transform="matrix(0.372239,0,0,0.372239,-6.183214,-0.771892)"/>
<path style="fill-rule:nonzero;fill:rgb(100%,40.784314%,0%);fill-opacity:1;stroke-width:0.46;stroke-linecap:butt;stroke-linejoin:miter;stroke:rgb(0%,0%,0%);stroke-opacity:1;stroke-miterlimit:4;" d="M 54.00071 39.599915 L 34.828312 16.628717 L 35.269056 16.271923 L 35.825234 15.831179 L 36.16104 15.579325 L 36.255485 15.495373 L 36.601785 15.254013 L 36.832651 15.08611 L 37.294384 14.771292 L 37.514756 14.613884 L 37.871549 14.383017 L 37.986983 14.299066 L 38.35427 14.078693 L 38.469703 14.005236 L 38.973411 13.711406 L 39.466626 13.42807 L 40.085767 13.092265 L 40.474043 12.89288 L 41.103678 12.578062 L 41.596892 12.336702 L 42.247516 12.06386 L 42.646285 11.895957 L 42.782706 11.853982 L 43.296908 11.654597 L 43.832098 11.455213 L 44.503709 11.224346 L 44.902478 11.087925 L 45.028405 11.04595 L 45.574089 10.888541 L 46.109279 10.741626 L 46.791384 10.563229 L 47.190154 10.45829 L 47.326575 10.426808 L 53.927252 39.306086 Z M 54.00071 39.599915 " transform="matrix(0.372239,0,0,0.372239,-6.183214,-0.771892)"/>
<path style="fill-rule:nonzero;fill:rgb(100%,76.862745%,0%);fill-opacity:1;stroke-width:0.46;stroke-linecap:butt;stroke-linejoin:miter;stroke:rgb(0%,0%,0%);stroke-opacity:1;stroke-miterlimit:4;" d="M 54.00071 39.599915 L 28.238128 44.269711 L 28.206646 44.112303 L 28.16467 43.786991 L 28.112201 43.461679 L 28.091213 43.30427 L 28.049237 42.968465 L 28.028249 42.811056 L 27.986274 42.47525 L 27.965286 42.317842 L 27.92331 41.824627 L 27.881334 41.320919 L 27.849853 40.817211 L 27.839359 40.659802 L 27.828865 40.33449 L 27.828865 40.166587 L 27.818371 39.841276 L 27.818371 38.854847 L 27.828865 38.529535 L 27.839359 38.372126 L 27.860346 38.036321 L 27.881334 37.711009 L 27.881334 37.5536 L 27.912816 37.217795 L 27.933804 37.060386 L 27.954792 36.735074 L 27.996767 36.399269 L 28.017755 36.24186 L 28.059731 35.906054 L 28.080719 35.748645 L 28.133188 35.423334 L 28.16467 35.255431 L 28.259116 34.762217 L 28.364055 34.279496 L 28.4585 33.796776 L 28.584427 33.324549 L 28.615909 33.156646 L 28.741836 32.68442 L 28.836281 32.359108 L 28.941221 32.044291 L 28.99369 31.876388 L 29.088136 31.582558 L 29.140605 31.425149 L 29.23505 31.120825 L 29.33999 30.816501 L 29.402953 30.669587 L 29.497399 30.365263 L 29.560362 30.218348 L 29.675795 29.924518 L 29.738759 29.767109 L 29.938143 29.305376 L 30.137528 28.864632 L 30.336912 28.413393 L 30.41037 28.255984 L 53.75935 39.494976 Z M 54.00071 39.599915 " transform="matrix(0.372239,0,0,0.372239,-6.183214,-0.771892)"/>
<path style="fill-rule:nonzero;fill:rgb(16.078431%,100%,80.784314%);fill-opacity:1;stroke-width:0.46;stroke-linecap:butt;stroke-linejoin:miter;stroke:rgb(0%,0%,0%);stroke-opacity:1;stroke-miterlimit:4;" d="M 54.00071 39.599915 L 41.638868 48.016042 L 41.586398 47.942585 L 41.470965 47.764188 L 41.418496 47.680237 L 41.261087 47.417888 L 41.156148 47.26048 L 41.103678 47.15554 L 41.019727 47.019119 L 40.946269 46.903686 L 40.872812 46.756771 L 40.799354 46.641338 L 40.725897 46.515411 L 40.589476 46.242569 L 40.516018 46.08516 L 53.864289 39.662879 Z M 54.00071 39.599915 " transform="matrix(0.372239,0,0,0.372239,-6.183214,-0.771892)"/>
<path style="fill-rule:nonzero;fill:rgb(49.019608%,100%,47.843137%);fill-opacity:1;stroke-width:0.46;stroke-linecap:butt;stroke-linejoin:miter;stroke:rgb(0%,0%,0%);stroke-opacity:1;stroke-miterlimit:4;" d="M 54.00071 39.599915 L 57.127899 58.037739 L 56.771106 58.100703 L 56.697648 58.100703 L 56.330361 58.153172 L 56.026037 58.184654 L 55.963074 58.184654 L 55.65875 58.205642 L 55.585292 58.216136 L 55.291462 58.237124 L 55.218005 58.237124 L 54.924175 58.258111 L 54.766766 58.258111 L 54.546394 58.268605 L 53.455026 58.268605 L 53.150702 58.258111 L 53.077245 58.258111 L 52.783415 58.237124 L 52.709957 58.237124 L 52.405634 58.216136 L 52.111804 58.195148 L 51.891431 58.195148 L 51.671059 58.17416 L 51.303772 58.12169 L 51.146363 58.12169 L 50.92599 58.090209 L 50.789569 58.069221 L 50.569197 58.027245 L 50.432776 57.995763 L 50.212404 57.964282 L 49.771659 57.869836 L 53.885277 39.820288 Z M 54.00071 39.599915 " transform="matrix(0.372239,0,0,0.372239,-6.183214,-0.771892)"/>
<path style="fill-rule:nonzero;fill:rgb(100%,40.784314%,0%);fill-opacity:1;stroke-width:0.46;stroke-linecap:butt;stroke-linejoin:miter;stroke:rgb(0%,0%,0%);stroke-opacity:1;stroke-miterlimit:4;" d="M 54.00071 39.599915 L 77.559568 58.048233 L 77.213269 58.488978 L 76.8145 58.992686 L 76.436718 59.422937 L 76.016961 59.895163 L 75.618192 60.293933 L 75.177448 60.745171 L 74.778678 61.14394 L 74.316946 61.584685 L 73.897189 61.962466 L 73.424962 62.382223 L 72.994711 62.739017 L 72.658906 63.011859 L 54.200094 39.830782 Z M 54.00071 39.599915 " transform="matrix(0.372239,0,0,0.372239,-6.183214,-0.771892)"/>
<path style="fill:none;stroke-width:2.1;stroke-linecap:butt;stroke-linejoin:miter;stroke:rgb(6.666667%,33.333333%,48.627451%);stroke-opacity:1;stroke-miterlimit:4;" d="M 545.507808 184.608359 C 584.597089 184.608359 616.292293 152.891083 616.292293 113.801802 C 616.292293 74.69045 584.597089 42.995246 545.507808 42.995246 C 506.396456 42.995246 474.701251 74.69045 474.701251 113.801802 C 474.701251 152.891083 506.396456 184.608359 545.507808 184.608359 Z M 545.507808 184.608359 " transform="matrix(0.176979,0,0,0.176979,-82.625276,-6.171741)"/>
<path style="fill:none;stroke-width:0.46;stroke-linecap:butt;stroke-linejoin:miter;stroke:rgb(0%,0%,0%);stroke-opacity:1;stroke-miterlimit:4;" d="M 54.00071 39.599915 L 61.126084 37.333228 L 61.136578 37.354216 L 61.16806 37.448661 L 61.178554 37.501131 L 61.210035 37.595576 L 61.220529 37.648046 L 61.252011 37.752985 L 61.293987 37.910394 L 61.314975 38.046815 L 61.346456 38.214718 L 61.367444 38.330151 L 61.377938 38.38262 L 61.388432 38.477066 L 61.388432 38.529535 L 61.40942 38.644968 L 61.40942 38.697438 L 61.419914 38.802377 L 61.430408 38.854847 L 61.440902 38.949292 L 61.451396 39.02275 L 61.451396 39.085713 L 61.46189 39.190652 L 61.46189 39.652385 L 54.063673 39.652385 Z M 54.00071 39.599915 " transform="matrix(0.372239,0,0,0.372239,-6.183214,-0.771892)"/>
<path style="fill:none;stroke-width:0.46;stroke-linecap:butt;stroke-linejoin:miter;stroke:rgb(0%,0%,0%);stroke-opacity:1;stroke-miterlimit:4;" d="M 54.00071 39.599915 L 62.018067 18.64355 L 62.416837 18.790465 L 62.815606 18.947874 L 62.878569 18.979356 L 63.203881 19.115777 L 63.25635 19.147259 L 63.644626 19.325655 L 64.074876 19.546028 L 64.3792 19.71393 L 64.505127 19.776894 L 64.746488 19.913315 L 64.872415 19.976278 L 65.166245 20.154675 L 65.229208 20.186157 L 65.586001 20.406529 L 65.953289 20.626902 L 66.005758 20.668877 L 66.310082 20.868262 L 66.373046 20.910238 L 67.065645 21.392958 L 67.128608 21.434934 L 67.411944 21.634318 L 67.506389 21.707776 L 67.726762 21.875679 L 67.926146 22.075063 L 54.084661 39.453 Z M 54.00071 39.599915 " transform="matrix(0.372239,0,0,0.372239,-6.183214,-0.771892)"/>
<path style="fill:none;stroke-width:0.46;stroke-linecap:butt;stroke-linejoin:miter;stroke:rgb(0%,0%,0%);stroke-opacity:1;stroke-miterlimit:4;" d="M 54.00071 39.599915 L 34.828312 16.628717 L 35.269056 16.271923 L 35.825234 15.831179 L 36.16104 15.579325 L 36.255485 15.495373 L 36.601785 15.254013 L 36.832651 15.08611 L 37.294384 14.771292 L 37.514756 14.613884 L 37.871549 14.383017 L 37.986983 14.299066 L 38.35427 14.078693 L 38.469703 14.005236 L 38.973411 13.711406 L 39.466626 13.42807 L 40.085767 13.092265 L 40.474043 12.89288 L 41.103678 12.578062 L 41.596892 12.336702 L 42.247516 12.06386 L 42.646285 11.895957 L 42.782706 11.853982 L 43.296908 11.654597 L 43.832098 11.455213 L 44.503709 11.224346 L 44.902478 11.087925 L 45.028405 11.04595 L 45.574089 10.888541 L 46.109279 10.741626 L 46.791384 10.563229 L 47.190154 10.45829 L 47.326575 10.426808 L 53.927252 39.306086 Z M 54.00071 39.599915 " transform="matrix(0.372239,0,0,0.372239,-6.183214,-0.771892)"/>
<path style="fill:none;stroke-width:0.46;stroke-linecap:butt;stroke-linejoin:miter;stroke:rgb(0%,0%,0%);stroke-opacity:1;stroke-miterlimit:4;" d="M 54.00071 39.599915 L 28.238128 44.269711 L 28.206646 44.112303 L 28.16467 43.786991 L 28.112201 43.461679 L 28.091213 43.30427 L 28.049237 42.968465 L 28.028249 42.811056 L 27.986274 42.47525 L 27.965286 42.317842 L 27.92331 41.824627 L 27.881334 41.320919 L 27.849853 40.817211 L 27.839359 40.659802 L 27.828865 40.33449 L 27.828865 40.166587 L 27.818371 39.841276 L 27.818371 38.854847 L 27.828865 38.529535 L 27.839359 38.372126 L 27.860346 38.036321 L 27.881334 37.711009 L 27.881334 37.5536 L 27.912816 37.217795 L 27.933804 37.060386 L 27.954792 36.735074 L 27.996767 36.399269 L 28.017755 36.24186 L 28.059731 35.906054 L 28.080719 35.748645 L 28.133188 35.423334 L 28.16467 35.255431 L 28.259116 34.762217 L 28.364055 34.279496 L 28.4585 33.796776 L 28.584427 33.324549 L 28.615909 33.156646 L 28.741836 32.68442 L 28.836281 32.359108 L 28.941221 32.044291 L 28.99369 31.876388 L 29.088136 31.582558 L 29.140605 31.425149 L 29.23505 31.120825 L 29.33999 30.816501 L 29.402953 30.669587 L 29.497399 30.365263 L 29.560362 30.218348 L 29.675795 29.924518 L 29.738759 29.767109 L 29.938143 29.305376 L 30.137528 28.864632 L 30.336912 28.413393 L 30.41037 28.255984 L 53.75935 39.494976 Z M 54.00071 39.599915 " transform="matrix(0.372239,0,0,0.372239,-6.183214,-0.771892)"/>
<path style="fill:none;stroke-width:0.46;stroke-linecap:butt;stroke-linejoin:miter;stroke:rgb(0%,0%,0%);stroke-opacity:1;stroke-miterlimit:4;" d="M 54.00071 39.599915 L 41.638868 48.016042 L 41.586398 47.942585 L 41.470965 47.764188 L 41.418496 47.680237 L 41.261087 47.417888 L 41.156148 47.26048 L 41.103678 47.15554 L 41.019727 47.019119 L 40.946269 46.903686 L 40.872812 46.756771 L 40.799354 46.641338 L 40.725897 46.515411 L 40.589476 46.242569 L 40.516018 46.08516 L 53.864289 39.662879 Z M 54.00071 39.599915 " transform="matrix(0.372239,0,0,0.372239,-6.183214,-0.771892)"/>
<path style="fill:none;stroke-width:0.46;stroke-linecap:butt;stroke-linejoin:miter;stroke:rgb(0%,0%,0%);stroke-opacity:1;stroke-miterlimit:4;" d="M 54.00071 39.599915 L 57.127899 58.037739 L 56.771106 58.100703 L 56.697648 58.100703 L 56.330361 58.153172 L 56.026037 58.184654 L 55.963074 58.184654 L 55.65875 58.205642 L 55.585292 58.216136 L 55.291462 58.237124 L 55.218005 58.237124 L 54.924175 58.258111 L 54.766766 58.258111 L 54.546394 58.268605 L 53.455026 58.268605 L 53.150702 58.258111 L 53.077245 58.258111 L 52.783415 58.237124 L 52.709957 58.237124 L 52.405634 58.216136 L 52.111804 58.195148 L 51.891431 58.195148 L 51.671059 58.17416 L 51.303772 58.12169 L 51.146363 58.12169 L 50.92599 58.090209 L 50.789569 58.069221 L 50.569197 58.027245 L 50.432776 57.995763 L 50.212404 57.964282 L 49.771659 57.869836 L 53.885277 39.820288 Z M 54.00071 39.599915 " transform="matrix(0.372239,0,0,0.372239,-6.183214,-0.771892)"/>
<path style="fill:none;stroke-width:0.46;stroke-linecap:butt;stroke-linejoin:miter;stroke:rgb(0%,0%,0%);stroke-opacity:1;stroke-miterlimit:4;" d="M 54.00071 39.599915 L 77.559568 58.048233 L 77.213269 58.488978 L 76.8145 58.992686 L 76.436718 59.422937 L 76.016961 59.895163 L 75.618192 60.293933 L 75.177448 60.745171 L 74.778678 61.14394 L 74.316946 61.584685 L 73.897189 61.962466 L 73.424962 62.382223 L 72.994711 62.739017 L 72.658906 63.011859 L 54.200094 39.830782 Z M 54.00071 39.599915 " transform="matrix(0.372239,0,0,0.372239,-6.183214,-0.771892)"/>
</g>
</svg>
