<?xml version="1.0" encoding="UTF-8"?>
<svg xmlns="http://www.w3.org/2000/svg" xmlns:xlink="http://www.w3.org/1999/xlink" width="33pt" height="33pt" viewBox="0 0 33 33" version="1.1">
<g id="surface1">
<path style=" stroke:none;fill-rule:nonzero;fill:rgb(30.196078%,67.058824%,81.176471%);fill-opacity:1;" d="M 14.582031 8.390625 L 10.015625 6.085938 L 5.007812 8.585938 L 9.695312 10.941406 Z M 14.582031 8.390625 "/>
<path style=" stroke:none;fill-rule:nonzero;fill:rgb(30.196078%,67.058824%,81.176471%);fill-opacity:1;" d="M 16.671875 9.445312 L 21.460938 11.863281 L 16.492188 14.355469 L 11.796875 12 Z M 16.671875 9.445312 "/>
<path style=" stroke:none;fill-rule:nonzero;fill:rgb(30.196078%,67.058824%,81.176471%);fill-opacity:1;" d="M 23.066406 6.121094 L 27.980469 8.585938 L 23.585938 10.796875 L 18.789062 8.375 Z M 23.066406 6.121094 "/>
<path style=" stroke:none;fill-rule:nonzero;fill:rgb(30.196078%,67.058824%,81.176471%);fill-opacity:1;" d="M 20.949219 5.058594 L 16.523438 2.839844 L 12.144531 5.027344 L 16.707031 7.324219 Z M 20.949219 5.058594 "/>
<path style=" stroke:none;fill-rule:nonzero;fill:rgb(30.196078%,67.058824%,81.176471%);fill-opacity:1;" d="M 17.488281 24.117188 L 17.488281 30.160156 L 22.851562 27.484375 L 22.84375 21.441406 Z M 17.488281 24.117188 "/>
<path style=" stroke:none;fill-rule:nonzero;fill:rgb(30.196078%,67.058824%,81.176471%);fill-opacity:1;" d="M 22.84375 19.332031 L 22.835938 13.351562 L 17.488281 16.011719 L 17.488281 21.992188 Z M 22.84375 19.332031 "/>
<path style=" stroke:none;fill-rule:nonzero;fill:rgb(30.196078%,67.058824%,81.176471%);fill-opacity:1;" d="M 29.28125 18.210938 L 29.28125 24.273438 L 24.707031 26.558594 L 24.703125 20.519531 Z M 29.28125 18.210938 "/>
<path style=" stroke:none;fill-rule:nonzero;fill:rgb(30.196078%,67.058824%,81.176471%);fill-opacity:1;" d="M 29.28125 16.089844 L 29.28125 10.148438 L 24.699219 12.429688 L 24.703125 18.417969 Z M 29.28125 16.089844 "/>
<path style=" stroke:none;fill-rule:nonzero;fill:rgb(30.196078%,46.666667%,81.176471%);fill-opacity:1;" d="M 15.597656 16.011719 L 11.984375 14.195312 L 11.984375 22.042969 C 11.984375 22.042969 7.566406 12.644531 7.160156 11.800781 C 7.105469 11.691406 6.886719 11.574219 6.832031 11.542969 C 6.039062 11.128906 3.71875 9.953125 3.71875 9.953125 L 3.71875 23.820312 L 6.929688 25.535156 L 6.929688 18.289062 C 6.929688 18.289062 11.300781 26.683594 11.34375 26.777344 C 11.390625 26.867188 11.828125 27.753906 12.296875 28.0625 C 12.921875 28.476562 15.597656 30.085938 15.597656 30.085938 Z M 15.597656 16.011719 "/>
</g>
</svg>
