<?xml version="1.0" encoding="UTF-8"?>
<svg xmlns="http://www.w3.org/2000/svg" xmlns:xlink="http://www.w3.org/1999/xlink" width="24pt" height="36pt" viewBox="0 0 24 36" version="1.1">
<g id="surface1">
<path style=" stroke:none;fill-rule:nonzero;fill:rgb(100%,100%,100%);fill-opacity:1;" d="M 8.167969 7.441406 L 10.796875 7.441406 L 10.796875 12.882812 L 8.167969 12.882812 Z M 8.167969 7.441406 "/>
<path style=" stroke:none;fill-rule:nonzero;fill:rgb(100%,100%,100%);fill-opacity:1;" d="M 8.167969 18.617188 L 10.796875 18.617188 L 10.796875 24.058594 L 8.167969 24.058594 Z M 8.167969 18.617188 "/>
<path style=" stroke:none;fill-rule:nonzero;fill:rgb(100%,79.215686%,0%);fill-opacity:1;" d="M 8.167969 14.46875 L 10.796875 14.46875 L 10.796875 17.035156 L 8.167969 17.035156 Z M 8.167969 14.46875 "/>
<path style=" stroke:none;fill-rule:nonzero;fill:rgb(100%,100%,100%);fill-opacity:1;" d="M 3.949219 11.914062 L 6.574219 11.914062 L 6.574219 30 L 3.949219 30 Z M 3.949219 11.914062 "/>
<path style=" stroke:none;fill-rule:nonzero;fill:rgb(100%,100%,100%);fill-opacity:1;" d="M 12.304688 23.105469 L 14.929688 23.105469 L 14.929688 28.546875 L 12.304688 28.546875 Z M 12.304688 23.105469 "/>
<path style=" stroke:none;fill-rule:nonzero;fill:rgb(100%,100%,100%);fill-opacity:1;" d="M 12.304688 11.921875 L 14.929688 11.921875 L 14.929688 17.363281 L 12.304688 17.363281 Z M 12.304688 11.921875 "/>
<path style=" stroke:none;fill-rule:nonzero;fill:rgb(90.588235%,1.568627%,53.333333%);fill-opacity:1;" d="M 12.304688 18.949219 L 14.929688 18.949219 L 14.929688 21.515625 L 12.304688 21.515625 Z M 12.304688 18.949219 "/>
<path style=" stroke:none;fill-rule:nonzero;fill:rgb(100%,100%,100%);fill-opacity:1;" d="M 16.4375 6.023438 L 19.066406 6.023438 L 19.066406 24.109375 L 16.4375 24.109375 Z M 16.4375 6.023438 "/>
</g>
</svg>
